<svg xmlns="http://www.w3.org/2000/svg" viewBox="0 0 1440 1080" fill="none">
  <rect width="1440" height="1080" rx="48" fill="#0B1410"/>
  <rect x="54" y="54" width="1332" height="972" rx="34" fill="#102018" stroke="#294533"/>
  <circle cx="1168" cy="244" r="188" fill="#183324"/>
  <circle cx="1168" cy="244" r="112" fill="#203F2C"/>
  <path d="M132 216h408" stroke="#315740" stroke-width="24" stroke-linecap="round"/>
  <path d="M132 292h630" stroke="#274837" stroke-width="16" stroke-linecap="round"/>
  <path d="M132 338h558" stroke="#274837" stroke-width="16" stroke-linecap="round"/>
  <rect x="132" y="432" width="264" height="72" rx="36" fill="#D8FF7F"/>
  <rect x="430" y="432" width="228" height="72" rx="36" fill="#1C3025" stroke="#385743"/>
  <rect x="132" y="598" width="1176" height="302" rx="36" fill="#0D1813" stroke="#294533"/>
  <rect x="176" y="650" width="510" height="192" rx="28" fill="#13241C"/>
  <rect x="724" y="650" width="240" height="76" rx="20" fill="#14261D"/>
  <rect x="724" y="746" width="240" height="76" rx="20" fill="#14261D"/>
  <rect x="988" y="650" width="276" height="172" rx="28" fill="#173021"/>
  <text x="132" y="160" fill="#F1F8F3" font-size="72" font-family="Arial, sans-serif" font-weight="700">
    Wattless Showcase
  </text>
  <text x="132" y="560" fill="#C7D7CD" font-size="30" font-family="Arial, sans-serif">
    Misma historia, menos bytes y mejor render crítico.
  </text>
</svg>
